<?xml version="1.0" encoding="utf-8"?>
<!-- Generator: Adobe Illustrator 18.1.1, SVG Export Plug-In . SVG Version: 6.00 Build 0)  -->
<!DOCTYPE svg PUBLIC "-//W3C//DTD SVG 1.1//EN" "http://www.w3.org/Graphics/SVG/1.1/DTD/svg11.dtd">
<svg version="1.1" id="Layer_1" xmlns="http://www.w3.org/2000/svg" xmlns:xlink="http://www.w3.org/1999/xlink" x="0px" y="0px"
	 viewBox="0 0 850 850" enable-background="new 0 0 850 850" xml:space="preserve">
<g>
	<circle fill="#E6E6E6" cx="424.2" cy="424.2" r="393.6"/>
	<path fill="#E6E6E6" d="M424.2,842.3c-56.4,0-111.2-11.1-162.8-32.9c-49.8-21.1-94.5-51.2-132.9-89.6S60,636.8,39,587
		C17.2,535.4,6.1,480.6,6.1,424.2S17.2,313,39,261.5C60,211.7,90.2,167,128.6,128.6S211.7,60,261.5,39C313,17.2,367.8,6.1,424.2,6.1
		S535.4,17.2,587,39c49.8,21.1,94.5,51.2,132.9,89.6s68.5,83.1,89.6,132.9c21.8,51.6,32.9,106.3,32.9,162.8S831.3,535.4,809.4,587
		c-21.1,49.8-51.2,94.5-89.6,132.9s-83.1,68.5-132.9,89.6C535.4,831.3,480.6,842.3,424.2,842.3z M424.2,55.1
		c-98.6,0-191.3,38.4-261,108.1c-69.7,69.7-108.1,162.4-108.1,261s38.4,191.3,108.1,261c69.7,69.7,162.4,108.1,261,108.1
		s191.3-38.4,261-108.1s108.1-162.4,108.1-261s-38.4-191.3-108.1-261C615.5,93.5,522.8,55.1,424.2,55.1z"/>
</g>
<path d="M465.9,828.7l-4.4-40.8l-7.3-29.1l-10.8,9.2l-11.5,4.6l-13.7,3.1l-8.1-3.3l-9.7-6.7l-0.6-4.1l-1.7-11.1
	c0,0-11.7-25.8-17.3-34.8c-5.6-9-19.7-27.4-27-46.8s-19.6-49.3-19.6-49.3s-12.1-27.8-15.1-56.4c-3-28.5,0.2-44.6-5.7-60
	s-16.4-32.8-17.6-54.6s0.7-31.9,0.7-31.9l-3.3-3.2l-0.1-14.3l-5.5,0.9l5.7-8.8l-0.1-5l2.6-15.3l-11.5,7.9l5.4-11l-12.4,1.9l10.5-9.9
	l-12.5-2.9l9.5-7.1c0,0-11.9,1.1-18,2.7c-6.1,1.6,16.5-7.8,21-15.3l-18,2.8l25-7.4l-26.7-3.7l30.4-4.7c0,0,4.8-3.3,13.5-12.5
	l-32.8,1.7l31.1-4.8c0,0-21-3.2-19-4.2s18.6-6.5,18.6-6.5l-13.6-2.2c0,0,24.3,1.9,16.6-2.6c-7.8-4.5-18-11.4-18-11.4l19,4.1
	c0,0-19.6-12.5-25-20.2c-5.4-7.7,24.5,16.7,28.7,16.1c4.1-0.6-19.9-19-19.9-19l23.4,14.2l-18.3-25.5l12.6,7.3c0,0,5.9-3,7.7-5.4
	c1.8-2.4-8.5-18.5-8.5-18.5l22.6,9.2l0.2-22l14.8,9c0,0-1.1-16.1-2.1-13.8c-1.1,2.3,15.2,16,15.2,16s-2.4-10.9-1.3-8.3
	c1.1,2.7,8,5.8,8,5.8l5.5-0.1l4.6-6.4l-3.9-25.6l10.3,11.1c0,0-3.8-17.8-2.6-15.2c1.1,2.7,18.2,23.4,18.2,23.4l-1.8-11.7l14.5,5.5
	l-2-13.1l5.1,4.2l-5.4-12.9c0,0,15,19.2,13.8,15.8s-6.6-24.5-6.6-24.5l9.7,7.7c0,0-2.2-5.3,11.6,1.7s18.6,10.6,18.6,10.6l-6-11.1
	c0,0,5.8,5.5,11.1,7.5c5.3,2,0.7-9.3,4.6-7.1c3.9,2.2,24.3,6.9,27.4,8.5s16.3,5.3,16.3,5.3l-0.6-4.1c0,0,10.7-0.2,11.7,1.7
	c1,2,1.5-6.6,6.3-3.1c4.8,3.5,12.1,11.6,12.1,11.6l-0.5-3.5l15.7,10.3c0,0-5.2-10.5-1.3-8.3c3.9,2.2,7.8,4.5,12,8.8
	c4.2,4.3,15.1,6.2,15.1,6.2s0.4,2.8,4.7,7.8s15.5,13.2,15.5,13.2l13.1,11.4c0,0,11.8,12.3,15.4,17.4s5.1,9.8,13.8,25.5
	c8.8,15.6,14,26.8,17.7,41.1c3.6,14.3,7.3,10.9,8.9,34.7c1.5,23.8,5,45.9,3.8,52.5c-1.1,6.5-0.7,27.7-3.5,36.6
	c0,0,16.1-1.1,14.2,32.5s-0.9,44.7-14.1,69.4c-13.2,24.7-22,35.9-35.3,41.5c-13.3,5.6-15-1.2-15-1.2s6.8,35,10.5,40.8
	c3.7,5.8,23,71.6,52.4,101.8c-21.5,16.7-29.7,22.3-45.5,32.1c-41.3,25.7-71.8,40.2-133,52.5l-19.6,3.5l-22.6,2.9"/>
</svg>
